<svg width="24" height="24" viewBox="0 0 24 24" fill="none" xmlns="http://www.w3.org/2000/svg">
<path d="M22 4.04175C22 3.90495 21.9731 3.76948 21.9207 3.64309C21.8683 3.5167 21.7916 3.40186 21.6949 3.30512C21.5981 3.20839 21.4833 3.13165 21.3569 3.0793C21.2305 3.02695 21.0951 3 20.9582 3H19.0339C18.6779 2.99962 18.3341 3.12923 18.0669 3.36448C17.7997 3.59973 17.6276 3.92444 17.583 4.27761L17.3488 6.15109C17.3425 6.20147 17.318 6.24782 17.28 6.28143C17.2419 6.31504 17.1929 6.33359 17.1421 6.33361H4.29188C3.932 6.33347 3.57714 6.41812 3.25607 6.5807C2.93501 6.74327 2.65675 6.97919 2.44386 7.26935C2.23097 7.55951 2.08943 7.89575 2.0307 8.25081C1.97198 8.60587 1.99773 8.96977 2.10587 9.31302L3.82351 14.7243C3.96712 15.1919 4.25735 15.6009 4.6513 15.8908C5.04526 16.1808 5.52204 16.3363 6.01119 16.3344H16.2845C16.733 16.3365 17.1673 16.1769 17.5077 15.8849C17.8481 15.5928 18.0719 15.1879 18.138 14.7443L18.7347 10.864C18.7555 10.7288 18.7495 10.5908 18.7169 10.4579C18.6844 10.325 18.626 10.1998 18.5451 10.0895C18.4642 9.9792 18.3624 9.8859 18.2454 9.81494C18.1284 9.74398 17.9986 9.69676 17.8634 9.67596C17.7282 9.65517 17.5902 9.66121 17.4573 9.69375C17.3244 9.72628 17.1993 9.78467 17.0889 9.86558C16.9786 9.94649 16.8853 10.0483 16.8144 10.1653C16.7434 10.2823 16.6962 10.4121 16.6754 10.5473L16.1329 14.0742C16.1255 14.1235 16.1006 14.1684 16.0628 14.2009C16.025 14.2333 15.9768 14.2511 15.927 14.2509H6.01119C5.96586 14.2511 5.92172 14.2364 5.88548 14.2092C5.84923 14.1819 5.82285 14.1436 5.81034 14.1001L4.0927 8.68297C4.08319 8.65183 4.08111 8.61889 4.08663 8.58681C4.09215 8.55472 4.10512 8.52437 4.12448 8.4982C4.14385 8.47203 4.16908 8.45076 4.19815 8.4361C4.22722 8.42144 4.25932 8.41379 4.29188 8.41378H17.513C17.9696 8.41324 18.4104 8.24647 18.753 7.94464C19.0956 7.6428 19.3167 7.22655 19.3748 6.77364L19.5631 5.26602C19.5694 5.21564 19.5939 5.16929 19.632 5.13568C19.67 5.10207 19.719 5.08352 19.7698 5.0835H20.9582C21.0951 5.0835 21.2305 5.05656 21.3569 5.00421C21.4833 4.95185 21.5981 4.87512 21.6949 4.77838C21.7916 4.68165 21.8683 4.56681 21.9207 4.44041C21.9731 4.31402 22 4.17856 22 4.04175Z" fill="white"/>
<path d="M5.75024 19.0431C5.75024 19.5404 5.9478 20.0174 6.29946 20.3691C6.65112 20.7207 7.12808 20.9183 7.6254 20.9183C8.12272 20.9183 8.59967 20.7207 8.95133 20.3691C9.30299 20.0174 9.50055 19.5404 9.50055 19.0431C9.50055 18.5458 9.30299 18.0688 8.95133 17.7172C8.59967 17.3655 8.12272 17.168 7.6254 17.168C7.12808 17.168 6.65112 17.3655 6.29946 17.7172C5.9478 18.0688 5.75024 18.5458 5.75024 19.0431Z" fill="white"/>
<path d="M13.8745 19.0431C13.8745 19.2894 13.923 19.5332 14.0172 19.7607C14.1115 19.9882 14.2496 20.1949 14.4237 20.3691C14.5979 20.5432 14.8046 20.6813 15.0321 20.7755C15.2596 20.8698 15.5034 20.9183 15.7497 20.9183C15.9959 20.9183 16.2398 20.8698 16.4673 20.7755C16.6948 20.6813 16.9015 20.5432 17.0756 20.3691C17.2497 20.1949 17.3878 19.9882 17.4821 19.7607C17.5763 19.5332 17.6248 19.2894 17.6248 19.0431C17.6248 18.7969 17.5763 18.553 17.4821 18.3255C17.3878 18.098 17.2497 17.8913 17.0756 17.7172C16.9015 17.5431 16.6948 17.4049 16.4673 17.3107C16.2398 17.2165 15.9959 17.168 15.7497 17.168C15.5034 17.168 15.2596 17.2165 15.0321 17.3107C14.8046 17.4049 14.5979 17.5431 14.4237 17.7172C14.2496 17.8913 14.1115 18.098 14.0172 18.3255C13.923 18.553 13.8745 18.7969 13.8745 19.0431Z" fill="white"/>
</svg>
