<?xml version="1.0" encoding="UTF-8"?>
<svg width="26px" height="26px" viewBox="0 0 26 26" version="1.1" xmlns="http://www.w3.org/2000/svg" xmlns:xlink="http://www.w3.org/1999/xlink">
    <!-- Generator: sketchtool 52.5 (67469) - http://www.bohemiancoding.com/sketch -->
    <title>4CCC1667-BB97-4178-A078-28E4366AD941</title>
    <desc>Created with sketchtool.</desc>
    <g id="Page-1" stroke="none" stroke-width="1" fill="none" fill-rule="evenodd">
        <g id="Home-Desktop" transform="translate(-47.000000, -3864.000000)" fill="#44393B">
            <g id="Footer" transform="translate(0.000000, 3669.000000)">
                <g id="Whatts" transform="translate(47.000000, 195.000000)">
                    <g id="Whatsapp">
                        <path d="M19.3533532,14.1876701 C19.3029736,14.1632491 17.4158583,13.2331276 17.0809662,13.1123499 C16.9438806,13.0632424 16.7972493,13.0149313 16.6413376,13.0149313 C16.3867878,13.0149313 16.1725418,13.1423452 16.0057586,13.3921295 C15.8174979,13.6727056 15.2468821,14.3400358 15.0705534,14.5396509 C15.0474848,14.5659301 15.0164616,14.5969872 14.9973703,14.5969872 C14.9806655,14.5969872 14.6884636,14.4767403 14.6001666,14.4385162 C12.5762308,13.5585639 11.0396518,11.4419006 10.8293831,11.0851417 C10.7988901,11.0336452 10.7975643,11.0100206 10.7975643,11.0100206 C10.8052539,10.9832106 10.873399,10.914991 10.9078692,10.8794213 C11.0110149,10.7774902 11.1221153,10.6431747 11.2300338,10.5136373 C11.2812089,10.4525848 11.3318537,10.3907359 11.3822333,10.3331342 C11.5386754,10.1505077 11.6078811,10.0092906 11.6890188,9.8457761 L11.7311786,9.76056805 C11.9279244,9.36903577 11.7598155,9.03829053 11.7051934,8.93131595 C11.6609123,8.84239167 10.8641185,6.91711461 10.7795337,6.71537594 C10.5756288,6.22722145 10.3064954,6 9.9328906,6 C9.89789001,6 9.9328906,6 9.7870548,6.00637069 C9.60993058,6.01353773 8.64476271,6.14121707 8.21839185,6.40984803 C7.76577055,6.69573296 7,7.60594598 7,9.20711394 C7,10.6479528 7.91319729,12.0080961 8.30562818,12.525715 C8.31543895,12.5384564 8.33346956,12.5652664 8.35918969,12.6034906 C9.86103332,14.7987259 11.7330347,16.4261729 13.6312866,17.185082 C15.4587418,17.9158537 16.3234155,18 16.8152799,18 L16.8158102,18 C17.0221016,18 17.1878241,17.9840733 17.3336599,17.9697392 L17.4261994,17.960714 C18.0572707,17.9049705 19.4445669,17.185082 19.7598374,16.3072533 C20.0085537,15.6162984 20.0743124,14.8608401 19.9088551,14.5863694 C19.7956335,14.4000265 19.6004786,14.3063242 19.3533532,14.1876701" id="Fill-1"></path>
                        <path d="M13.2309379,22.7074445 C11.2437218,22.7074445 9.31910571,22.1339112 7.66460181,21.0481138 C7.60919417,21.011885 7.54472952,20.9927051 7.47973211,20.9927051 C7.44536872,20.9927051 7.41073895,20.9982992 7.37744109,21.0089547 L3.99810821,22.0830311 L5.08921238,18.8642651 C5.12410853,18.7601074 5.10626088,18.6455605 5.04152985,18.5563206 C3.78153895,16.8351878 3.1158482,14.8013155 3.1158482,12.6744739 C3.1158482,7.14159546 7.65341373,2.64017131 13.2309379,2.64017131 C18.8079293,2.64017131 23.3446957,7.14159546 23.3446957,12.6744739 C23.3449621,18.2068195 18.8079293,22.7074445 13.2309379,22.7074445 M13.2309379,0 C6.18910718,0 0.460810298,5.68578513 0.460810298,12.6744739 C0.460810298,14.9347759 1.06576576,17.1476609 2.21174479,19.0837688 L0.0178156122,25.5543329 C-0.0229409644,25.6750067 0.00742668087,25.8082007 0.0966649368,25.899039 C0.16139597,25.9648368 0.248769546,26 0.337741419,26 C0.372104807,26 0.406468196,25.9954714 0.439766052,25.9845495 L7.18671097,23.840659 C9.03274414,24.8270937 11.119321,25.3476158 13.2309379,25.3476158 C20.2719695,25.3476158 26,19.6626299 26,12.6744739 C26,5.68578513 20.2719695,0 13.2309379,0" id="Fill-3"></path>
                    </g>
                </g>
            </g>
        </g>
    </g>
</svg>